<?xml version="1.0" encoding="utf-8"?>
<!-- Generator: Adobe Illustrator 19.0.0, SVG Export Plug-In . SVG Version: 6.00 Build 0)  -->
<svg version="1.1" id="Слой_1" xmlns="http://www.w3.org/2000/svg" xmlns:xlink="http://www.w3.org/1999/xlink" x="0px" y="0px"
	 viewBox="-36.1 452.5 387.2 266.4" style="enable-background:new -36.1 452.5 387.2 266.4;" xml:space="preserve">
<style type="text/css">
	.st0{fill:#FFFDFD;}
	.st1{fill:#FFFFFF;}
	.st2{fill:#1D1D1D;}
	.st3{fill:#4E7EA5;}
</style>
<g>
	<ellipse class="st0" cx="157.9" cy="605.1" rx="144.9" ry="113.8"/>
	<ellipse class="st1" cx="157.5" cy="608.9" rx="193.5" ry="54.6"/>
	<g id="layer101">
		<path class="st2" d="M149.8,716c-5.3-1.4-8.7-3.3-13-7.2c-8.4-7.6-10-18.9-3.7-24.8c2.5-2.4,9-5.1,14.6-6.1
			c6.9-1.2,19.1-0.5,25,1.4c14.2,4.5,17.1,16.3,6.9,27.5C171.7,715.3,160.3,718.8,149.8,716z"/>
		<path class="st2" d="M80.4,703.7C18.6,677-21.5,648.9-33.4,623.9c-2.5-5.1-3.5-11.6-2.1-13.3c0.6-0.7,3.5-1.1,9.7-1.4
			c16.1-0.8,25.3-3.9,57.6-19.7c35.3-17.3,42.6-19.8,59.2-20.4c8.5-0.4,10.7-0.1,15.9,1.2c8.7,2.2,14.7,5.4,20.3,10.9
			c14.6,14.3,16.3,39.4,4.2,59.7c-3.5,5.8-9.6,12.3-18.9,19.9c-15.1,12.4-19.4,17.5-20.7,24.1c-0.9,4.6,0.1,10.8,2.6,16.1
			c1.1,2.2,2.2,4.7,2.5,5.3c0.6,1.2-0.9,3.5-2.1,3.4C94.5,709.8,88,707,80.4,703.7z M96.3,627c10.9,1.8,21.7-10.8,19.9-16.3
			c-0.4-1.4-1.5-2-18.6-6.8c-10-2.8-11.8-3.2-13.4-2c-4.1,3-3.5,13.3,1.8,19.5C88.5,624.2,92,626.3,96.3,627z"/>
		<path class="st2" d="M218.3,709c-1.2-1.2-1.1-2.2,0.9-6.1c6-12,5-21.2-3.4-29.8c-1.7-1.7-7.7-7-13.4-11.8
			c-11.8-9.9-17-15.8-21.1-23.8c-8.7-17.3-8.3-36,1.4-50.6c3.8-5.8,8.7-9.9,15.7-13.3c7.8-3.7,14.1-4.8,25.6-4.3
			c16.1,0.7,25.1,3.8,58.2,20.2c30.8,15.2,42,19.1,58,19.9c8.3,0.4,9,0.6,10,2.1c3.3,5.1-4.4,19.4-17.8,32.9
			c-16.3,16.3-37.3,30.2-70.2,46.5c-11.4,5.6-41.5,19.1-42.8,19.1C219.3,709.8,218.8,709.5,218.3,709z M202.9,609.3
			c-1.2,5.8,7.6,13.9,15.8,14.2c2.8,0.1,5.6-0.4,8.4-1.9c5.1-2.6,7.7-5.8,9.1-11.2c0.3-1.2,2.3-9.7-1.6-12.9
			c-2.6-2.1-7-0.6-15.6,2.6C208.7,603.9,203.6,605.8,202.9,609.3z"/>
		<path class="st3" d="M-36.1,593.9c0-0.6,1.7-2.1,3.8-3.3c9.5-5.9,23.3-18.1,29.5-26.4l2.7-3.6l-2.5-10.1c-3.2-13.1-7-32.6-9-45.9
			c-2.2-14-2.4-36.6-0.4-42.8c2.5-8.4,6.4-10.5,15.1-8.7c16.4,3.3,38,13.4,59.1,27.6c5,3.3,9.4,6.1,9.8,6.1s3.6-1.7,7.2-3.8
			c19.8-11.7,40.2-19.2,60.2-22.1c12-1.7,31.9-1.1,43.5,1.4c16.8,3.6,37,11.8,53.1,21.5c4.2,2.6,6.5,3.5,7.2,3.1
			c16.1-11.2,29.7-19.2,42.4-24.9c14.4-6.5,28.8-10.5,33.2-9.2c6.6,1.9,9.5,9.9,9.4,26.7c-0.1,16.5-3.8,40.8-10.4,68.4
			c-2.7,11.3-2.9,12.6-2,14.4c0.5,1.2,5.4,6.4,10.8,11.8c7.2,7.2,11.7,11,17.1,14.4c4,2.6,7.4,5.1,7.4,5.7
			c0.1,2.2-14.5-1.4-26.7-6.5c-10.6-4.6-20.9-10.6-44.6-26.4c-12-7.9-25.4-16.3-29.8-18.6c-9.2-4.7-20.6-8.7-28.2-9.9
			c-6.8-1-19.2-0.4-24.6,1.2c-13.5,4.1-26.1,14.2-35.8,28.9c-3.7,5.5-4.3,6.2-5,5.1c-3.4-5.6-10.3-14.3-15.5-19.4
			c-11-10.6-21.7-15.5-35.3-16.3c-19.9-1-35,5-68.1,27.1C2.8,582.7-9,588.8-27.4,593.5C-34.2,595.2-36.1,595.3-36.1,593.9z"/>
	</g>
</g>
</svg>
